<?xml version="1.0" encoding="UTF-8" standalone="no"?>
<svg
   xmlns:dc="http://purl.org/dc/elements/1.1/"
   xmlns:cc="http://creativecommons.org/ns#"
   xmlns:rdf="http://www.w3.org/1999/02/22-rdf-syntax-ns#"
   xmlns:svg="http://www.w3.org/2000/svg"
   xmlns="http://www.w3.org/2000/svg"
   xmlns:sodipodi="http://sodipodi.sourceforge.net/DTD/sodipodi-0.dtd"
   xmlns:inkscape="http://www.inkscape.org/namespaces/inkscape"
   width="32"
   height="40"
   viewBox="0 0 32 40"
   version="1.1"
   id="svg4"
   sodipodi:docname="flame.svg"
   inkscape:version="0.92.4 (5da689c313, 2019-01-14)"
   inkscape:export-filename="/home/jacobsp/Programming/CertificateParser/assets/flame.png"
   inkscape:export-xdpi="48"
   inkscape:export-ydpi="48">
  <metadata
     id="metadata10">
    <rdf:RDF>
      <cc:Work
         rdf:about="">
        <dc:format>image/svg+xml</dc:format>
        <dc:type
           rdf:resource="http://purl.org/dc/dcmitype/StillImage" />
        <dc:title />
      </cc:Work>
    </rdf:RDF>
  </metadata>
  <defs
     id="defs8" />
  <sodipodi:namedview
     pagecolor="#ffffff"
     bordercolor="#666666"
     borderopacity="1"
     objecttolerance="10"
     gridtolerance="10"
     guidetolerance="10"
     inkscape:pageopacity="0"
     inkscape:pageshadow="2"
     inkscape:window-width="1360"
     inkscape:window-height="699"
     id="namedview6"
     showgrid="false"
     inkscape:zoom="2.7656521"
     inkscape:cx="12.265891"
     inkscape:cy="67.782529"
     inkscape:window-x="0"
     inkscape:window-y="0"
     inkscape:window-maximized="1"
     inkscape:current-layer="svg4"
     inkscape:pagecheckerboard="true" />
  <path
     d="M 13.542287,0.02600805 C 15.64892,5.6697011 14.608609,8.8166451 12.189882,11.235371 9.641116,13.96619 5.5578919,15.994799 2.74905,19.973992 -1.0220816,25.305591 -1.6722768,36.957087 11.929804,40 6.208087,36.983095 4.9857209,28.244474 11.14957,22.808842 c -1.586476,5.279585 1.378413,8.660598 5.045515,7.438232 3.615084,-1.222367 5.981794,1.378413 5.90377,4.343303 -0.05202,2.028608 -0.806243,3.745124 -2.938882,4.707411 8.894669,-1.534459 12.431731,-8.894667 12.431731,-14.460337 0,-7.386216 -6.579975,-8.374511 -3.250977,-14.590377 -3.953187,0.338101 -5.279583,2.938883 -4.915473,7.152146 0.234069,2.808843 -2.652798,4.681404 -4.837453,3.459039 -1.742522,-1.066321 -1.716515,-3.09493 -0.156046,-4.629391 C 21.682731,13.02991 22.983119,5.5916777 13.542287,0.05201585 L 13.490267,-1.5e-7 Z"
     id="path2"
     style="fill:#ff6600;fill-rule:evenodd;stroke-width:2.60078025"
     inkscape:connector-curvature="0"
     inkscape:export-xdpi="48"
     inkscape:export-ydpi="48" />
</svg>
