<?xml version="1.0" encoding="UTF-8" standalone="no"?>
<!-- Created with Inkscape (http://www.inkscape.org/) -->

<svg
   xmlns:dc="http://purl.org/dc/elements/1.1/"
   xmlns:cc="http://creativecommons.org/ns#"
   xmlns:rdf="http://www.w3.org/1999/02/22-rdf-syntax-ns#"
   xmlns:svg="http://www.w3.org/2000/svg"
   xmlns="http://www.w3.org/2000/svg"
   xmlns:sodipodi="http://sodipodi.sourceforge.net/DTD/sodipodi-0.dtd"
   xmlns:inkscape="http://www.inkscape.org/namespaces/inkscape"
   version="1.1"
   id="svg2"
   width="774.66669"
   height="762.66669"
   viewBox="0 0 774.66669 762.66669"
   sodipodi:docname="Kangaroo.svg"
   inkscape:version="0.92.4 (5da689c313, 2019-01-14)"
   inkscape:export-filename="/home/jacobsp/Design/Common/about_icon.png"
   inkscape:export-xdpi="17.4"
   inkscape:export-ydpi="17.4">
  <metadata
     id="metadata8">
    <rdf:RDF>
      <cc:Work
         rdf:about="">
        <dc:format>image/svg+xml</dc:format>
        <dc:type
           rdf:resource="http://purl.org/dc/dcmitype/StillImage" />
        <dc:title />
      </cc:Work>
    </rdf:RDF>
  </metadata>
  <defs
     id="defs6" />
  <sodipodi:namedview
     pagecolor="#ffffff"
     bordercolor="#666666"
     borderopacity="1"
     objecttolerance="10"
     gridtolerance="10"
     guidetolerance="10"
     inkscape:pageopacity="0"
     inkscape:pageshadow="2"
     inkscape:window-width="1366"
     inkscape:window-height="697"
     id="namedview4"
     showgrid="false"
     inkscape:zoom="0.96168791"
     inkscape:cx="50.756282"
     inkscape:cy="346.74501"
     inkscape:window-x="1360"
     inkscape:window-y="0"
     inkscape:window-maximized="1"
     inkscape:current-layer="svg2" />
  <g
     id="g25"
     transform="translate(63.502315,6.9602536)">
    <path
       style="fill:#d4841a;stroke-width:1.33333337"
       d="M 300.52941,736.24296 C 296.00508,733.75604 281.5782,719.44299 251.21,687.31266 210.06346,643.77858 184.85085,617.31782 176.23323,608.6242 158.92214,591.16041 -37.591928,384.07486 -39.421723,381.36808 c -6.201761,-9.17416 -5.774684,-21.62125 1.168072,-34.04319 1.975462,-3.53448 17.512942,-19.68481 38.797772,-40.32808 19.526505,-18.93794 40.650178,-39.44165 46.941498,-45.5638 6.29133,-6.12215 15.33877,-14.52215 20.10544,-18.66667 4.76666,-4.14452 9.13174,-8.25916 9.70017,-9.14364 1.50504,-2.34186 91.334671,-86.99804 127.041781,-119.72519 16.80224,-15.399999 41.37329,-38.199997 54.60235,-50.666664 38.13166,-35.934151 55.4623,-51.452539 58.93625,-52.773332 1.77451,-0.6746678 7.53732,-1.2113118 12.80626,-1.1925408 8.47877,0.0302 10.35504,0.528369 16.3241,4.3341878 3.70934,2.365033 9.67186,7.596401 13.25006,11.625263 3.5782,4.02886 8.64329,8.916723 11.25576,10.861916 7.81278,5.817251 55.59528,54.70187 187.48667,191.81118 68.77896,71.5 126.79903,132.7 128.93348,136 3.55555,5.49712 3.83388,6.79033 3.32078,15.42952 -0.35554,5.98631 -1.49074,11.03902 -3.10884,13.83724 -1.40184,2.42424 -62.24881,61.73414 -135.21547,131.79975 -72.96667,70.06562 -150.47,144.75883 -172.22961,165.98491 -21.75961,21.2261 -41.03444,39.57293 -42.83295,40.77074 -1.7985,1.19783 -4.89577,3.33 -6.88281,4.73819 -2.64911,1.87738 -6.33917,2.65902 -13.83372,2.9303 -8.93959,0.32358 -11.02263,-0.0707 -16.61591,-3.14521 z m 21.4745,-97.34543 c -0.54124,-2.81045 -2.90758,-2.63324 -3.5106,0.26291 -0.25154,1.20797 0.48345,2.07042 1.76442,2.07042 1.37328,0 2.02724,-0.87386 1.74618,-2.33333 z"
       id="path16"
       inkscape:connector-curvature="0" />
    <path
       style="fill:#2e2321;stroke-width:1.33333337"
       d="m 301.54186,726.07749 c -4.32592,-2.01442 -9.7825,-6.45629 -15.33333,-12.48193 C 269.04464,694.96349 210.07594,632.86912 165.57161,586.56419 15.640434,430.567 -30.008488,382.04134 -32.954924,375.52672 c -3.425632,-7.57413 -3.089813,-17.82977 0.835752,-25.52321 1.90509,-3.73366 9.527244,-12.07928 20.376893,-22.31103 9.533333,-8.99039 46.406908,-43.97213 81.941278,-77.73723 C 216.11405,111.30542 311.67664,21.947724 317.01504,19.165021 c 6.5892,-3.434703 19.08768,-3.271284 25.96368,0.339479 3.28784,1.726524 24.56355,22.491391 54.58848,53.277772 27.06045,27.746718 72.66308,74.148578 101.33916,103.115248 44.80351,45.2575 105.55079,107.44401 163.46066,167.33333 11.34622,11.73406 16.10619,17.68219 17.8529,22.30927 2.79676,7.40869 2.33426,16.54016 -1.21606,24.00976 -2.31829,4.8775 -30.30235,32.26467 -140.74612,137.74409 -25.3,24.16277 -62.09308,59.53336 -81.76242,78.60128 -19.66932,19.06792 -38.11932,36.35183 -41,38.40867 -2.88067,2.05684 -5.23759,4.2553 -5.23759,4.88548 0,2.17926 -76.11882,74.05244 -81.59241,77.04147 -7.49623,4.09354 -18.13243,4.03341 -27.12346,-0.15338 z m 20.96881,-13.89598 c 3.87194,-2.55352 34.38312,-31.44174 90.41373,-85.60438 19.43334,-18.78547 54.80975,-52.72334 78.61424,-75.4175 C 611.75019,436.55526 666.30972,383.48802 667.0798,380.41978 668.7561,373.74083 666.43516,369.18631 655.27034,357.24545 636.84834,337.54299 480.53388,177.99214 367.59107,63.609973 l -31.33334,-31.732648 -6.3689,0.01013 c -6.2934,0.0099 -6.57776,0.203704 -23.98461,16.343387 -15.53725,14.406199 -70.19949,65.620658 -96.31316,90.238288 -44.75675,42.19264 -60.6762,57.26211 -73.33333,69.4178 -8.06667,7.74709 -31.44092,29.96873 -51.942791,49.38144 -77.317498,73.20998 -101.438488,96.42796 -103.009972,99.15366 -2.332679,4.04594 -2.058287,10.27226 0.628206,14.25481 3.781076,5.60521 90.667986,97.37848 193.031607,203.88735 25.72492,26.76667 63.02559,65.76667 82.89038,86.66667 38.75252,40.77204 49.2528,51.27267 52.40257,52.40429 3.97759,1.42901 8.73834,0.86421 12.25294,-1.45364 z m -10.11462,-67.73763 c -1.90569,-4.96618 1.94969,-5.36462 4.56809,-0.4721 1.15119,2.15104 0.9497,2.59242 -1.18352,2.59242 -1.414,0 -2.93706,-0.95415 -3.38457,-2.12032 z m 157.19502,-119.7361 c -2.93333,-0.92292 -6.60941,-2.36433 -8.16908,-3.20315 -1.55967,-0.83881 -25.14199,-5.4707 -52.40516,-10.29309 -27.26318,-4.82237 -50.88708,-9.27196 -52.49759,-9.88797 -5.47681,-2.09484 -7.80153,-6.51791 -12.4292,-23.64803 -2.54243,-9.41124 -6.74856,-23.41135 -9.34697,-31.11135 -5.10358,-15.12363 -22.32855,-52.67756 -25.73117,-56.09915 -1.14813,-1.15452 -4.7875,-3.2324 -8.0875,-4.61749 -11.14356,-4.67725 -17.0005,-9.21928 -39.90999,-30.95003 -12.56307,-11.91667 -23.79437,-21.66667 -24.95845,-21.66667 -1.1641,0 -19.91344,9.28862 -41.66522,20.64136 -21.75179,11.35275 -43.16675,22.11151 -47.58879,23.90835 -12.11686,4.92352 -28.83081,7.92482 -39.26233,7.05027 -11.146371,-0.93447 -27.800721,-7.28452 -36.615231,-13.96084 -9.5193,-7.21015 -20.16518,-21.84372 -23.36205,-32.11292 -4.9115,-15.777 -3.63516,-15.82692 8.1666,-0.3194 8.83737,11.6123 17.82165,18.97393 26.28662,21.539 7.88939,2.39065 24.311491,3.03898 32.726581,1.29202 22.96025,-4.76653 64.29572,-35.02514 92.14411,-67.45184 30.80023,-35.86381 54.96807,-58.54957 75.96244,-71.30409 37.27992,-22.64835 78.767,-12.2399 114.86078,28.81674 4.46513,5.07908 13.23088,15.8382 19.47946,23.90919 6.24858,8.07098 12.7953,15.4208 14.54826,16.33295 4.28077,2.22748 26.05692,9.65921 28.303,9.65921 3.25607,0 23.60527,-13.92453 23.23772,-15.90108 -0.19443,-1.0456 -4.55351,-4.15877 -9.68684,-6.91814 -5.40405,-2.90491 -11.71897,-7.70246 -15,-11.39575 -9.14517,-10.29426 -7.19855,-12.72616 7.28389,-9.09972 11.87251,2.9729 14.2761,4.31588 24.81055,13.86263 5.25371,4.7611 9.65099,7.749 10.77144,7.31902 2.22451,-0.85361 8.65525,2.21287 16.13412,7.69351 2.93333,2.1496 11.63333,7.95999 19.33333,12.91197 13.58042,8.73378 21.33334,15.833 21.33334,19.53463 0,2.13839 -3.53436,5.92065 -5.76191,6.16605 -0.86428,0.0952 -6.48289,0.036 -12.48578,-0.1316 -6.00291,-0.16762 -12.93239,0.36123 -15.39886,1.17523 -2.46647,0.81401 -8.83128,1.68299 -14.14405,1.93105 l -9.65958,0.45104 -6.73628,7.55795 c -3.70496,4.15687 -10.54769,10.27771 -15.20606,13.60185 -5.90084,4.21075 -10.4116,8.95527 -14.87196,15.64267 -6.22606,9.33468 -6.78736,9.78644 -20.40219,16.42066 l -14,6.8219 -14.63078,22.3153 c -8.04692,12.27341 -16.07784,23.45356 -17.84648,24.84476 -4.22416,3.32273 -12.37804,3.33768 -15.37309,0.0281 -3.09189,-3.41652 -4.15748,-11.08039 -2.08025,-14.96172 1.67933,-3.13785 1.71066,-3.11883 4.0901,2.4838 2.54034,5.98147 5.78216,7.36399 7.15142,3.04983 1.95337,-6.15454 9.60573,-47.54991 9.05853,-49.00211 -0.3312,-0.87899 -3.69981,-2.57555 -7.48581,-3.77014 -3.786,-1.19458 -7.72203,-2.4405 -8.74674,-2.7687 -2.73741,-0.87676 -12.14138,9.60425 -17.24901,19.22455 -4.44227,8.36708 -4.44541,8.38654 -4.41657,27.30941 0.0367,24.10061 2.63952,42.99501 7.64657,55.50888 2.53308,6.33079 -1.9014,4.52216 59.00842,24.06683 26.34096,8.45224 48.02097,14.69399 51.03802,14.69399 5.34236,0 21.169,6.91305 21.169,9.24658 0,0.66451 -1.79312,1.60204 -3.9847,2.08339 -2.1916,0.48136 -4.327,1.42903 -4.74536,2.10595 -1.09467,1.77121 -16.32511,1.34962 -22.60327,-0.62567 z M 322.23077,107.84715 c -1.68514,-3.14874 -0.55742,-7.949639 1.86736,-7.949639 0.91338,0 3.27156,1.681389 5.2404,3.736419 2.78039,2.90209 3.22314,4.09299 1.98279,5.33333 -2.49617,2.49617 -7.48408,1.88158 -9.09055,-1.12011 z"
       id="path14"
       inkscape:connector-curvature="0" />
  </g>
</svg>
